<svg xmlns="http://www.w3.org/2000/svg" width="800" height="450" viewBox="0 0 800 450">
  <defs>
    <linearGradient id="bg" x1="0" y1="0" x2="1" y2="1">
      <stop offset="0" stop-color="#0b0e1a"/>
      <stop offset="1" stop-color="#1b1035"/>
    </linearGradient>
    <linearGradient id="bar" x1="0" y1="1" x2="0" y2="0">
      <stop offset="0" stop-color="#7c3aed"/>
      <stop offset="1" stop-color="#22d3ee"/>
    </linearGradient>
  </defs>
  <rect width="800" height="450" fill="url(#bg)"/>
  <g fill="url(#bar)" opacity="0.9">
    <rect x="60" y="250" width="34" height="120" rx="8"/>
    <rect x="110" y="190" width="34" height="180" rx="8"/>
    <rect x="160" y="280" width="34" height="90" rx="8"/>
    <rect x="210" y="150" width="34" height="220" rx="8"/>
    <rect x="260" y="230" width="34" height="140" rx="8"/>
    <rect x="310" y="110" width="34" height="260" rx="8"/>
    <rect x="360" y="200" width="34" height="170" rx="8"/>
    <rect x="410" y="260" width="34" height="110" rx="8"/>
    <rect x="460" y="170" width="34" height="200" rx="8"/>
    <rect x="510" y="240" width="34" height="130" rx="8"/>
    <rect x="560" y="140" width="34" height="230" rx="8"/>
    <rect x="610" y="210" width="34" height="160" rx="8"/>
    <rect x="660" y="270" width="34" height="100" rx="8"/>
  </g>
  <circle cx="400" cy="225" r="72" fill="#0b0e1a" stroke="#22d3ee" stroke-width="5"/>
  <polygon points="385,175 445,225 385,275" fill="#22d3ee"/>
  <text x="400" y="60" text-anchor="middle" font-family="sans-serif" font-size="40" font-weight="bold" fill="#ffffff">LINO HEARDLE</text>
  <text x="400" y="410" text-anchor="middle" font-family="sans-serif" font-size="24" fill="#a5b4fc">0.1s … erkennst du den Song?</text>
</svg>
